<svg xmlns="http://www.w3.org/2000/svg" viewBox="0 0 273.63 71.45"><defs><style>.cls-1{fill:#4a50ba;}</style></defs><title>アセット 1</title><g id="レイヤー_2" data-name="レイヤー 2"><g id="レイヤー_2-2" data-name="レイヤー 2"><rect class="cls-1" x="137.22" y="30.69" width="2.83" height="11.34" rx="0.92" ry="0.92"/><path class="cls-1" d="M170.53,6.55c3.34-1,7.51-2,9.68.17l-5-6s-9.78-4.22-19.58,8.23c-7.6,9.66-8.3,11-14.78,23v7.14S163.36,8.71,170.53,6.55Z"/><path class="cls-1" d="M143.67,37.53l-2.6,3c18.65,23,34.16,31,34.16,31h18.35C165,62.35,143.67,37.53,143.67,37.53Z"/><path class="cls-1" d="M171.41,20.84c-8.47,8.48-20.53,13.63-26.79,16.13,0,0,1.47,1.89,2.33,2.75,2.53-.54,16.84-5.39,28.12-13.7,7.49-5.52,6.05-15.32,6.05-17.58-3.65-2.18-6-1.29-6-1.29S176.49,15.77,171.41,20.84Z"/><rect class="cls-1" x="133.25" y="30.69" width="2.83" height="11.34" rx="0.92" ry="0.92"/><path class="cls-1" d="M102.77,6.55c-3.33-1-7.51-2-9.67.17l5-6s9.79-4.22,19.59,8.23c7.6,9.66,8.3,11,14.78,23v7.14S109.94,8.71,102.77,6.55Z"/><path class="cls-1" d="M129.64,37.53l2.38,3c-18.64,23-33.94,31-33.94,31H79.72C108.32,62.35,129.64,37.53,129.64,37.53Z"/><path class="cls-1" d="M101.89,20.84c8.48,8.48,20.53,13.63,26.8,16.13,0,0-1.48,1.89-2.33,2.75-2.53-.54-16.84-5.39-28.12-13.7C90.75,20.5,92.18,10.7,92.18,8.44c3.66-2.18,6-1.29,6-1.29S96.82,15.77,101.89,20.84Z"/><path class="cls-1" d="M113.21,36.36H0v3.36H119.76C117.68,38.74,115.13,37.4,113.21,36.36Z"/><path class="cls-1" d="M160.65,36.36a69.38,69.38,0,0,1-7.91,3.36H273.63V36.36Z"/></g></g></svg>