<svg id="レイヤー_1" data-name="レイヤー 1" xmlns="http://www.w3.org/2000/svg" viewBox="0 0 16 16"><title>icon</title><path d="M16,4a4,4,0,0,0-4-4H4A4,4,0,0,0,0,4v8a4,4,0,0,0,4,4h8a4,4,0,0,0,4-4ZM4.88,6,4.57,7.23,4.14,8.92l-.26,1-.27,1.18a4.66,4.66,0,0,0,.54,0,3,3,0,0,0,.68-.08l-.07.28a2.71,2.71,0,0,1-.55.07l-.68,0-.64,0a6,6,0,0,0-1,.09L2,11.18A1.55,1.55,0,0,0,2.68,11,.86.86,0,0,0,3,10.6q.11-.27.52-1.89L4.1,6.12l0-.12H3.7a4.25,4.25,0,0,0-1.43.2,1.64,1.64,0,0,0-.8.57,1.35,1.35,0,0,0-.27.8.71.71,0,0,0,.05.28,1.35,1.35,0,0,0,.21.28.52.52,0,0,1,.17.33.3.3,0,0,1-.1.22.33.33,0,0,1-.23.09A.38.38,0,0,1,1,8.56a1.33,1.33,0,0,1-.19-.73,2.08,2.08,0,0,1,.37-1.16,2.44,2.44,0,0,1,1-.87A3.62,3.62,0,0,1,3.74,5.5a12.08,12.08,0,0,1,1.4.13,8.77,8.77,0,0,0,1,.09.71.71,0,0,0,.44-.1.34.34,0,0,0,.13-.27,1.3,1.3,0,0,0,0-.14.94.94,0,0,1,0-.12.3.3,0,0,1,.09-.22A.29.29,0,0,1,7,4.77a.31.31,0,0,1,.24.11.42.42,0,0,1,.1.29.77.77,0,0,1-.4.64,2.43,2.43,0,0,1-1.32.27Zm10.1.5A12.73,12.73,0,0,1,13.47,8.9,25,25,0,0,1,11,11.79l.1-3.14a14.11,14.11,0,0,1,.2-2,10.91,10.91,0,0,0-.71,1A36.65,36.65,0,0,1,7.81,11.6q-.11-.65-.17-1.52T7.57,8.56a5.05,5.05,0,0,1,.17-1.47,4.22,4.22,0,0,1,.66-1.2,2.57,2.57,0,0,0-1.46.58,1.34,1.34,0,0,0-.54,1,.79.79,0,0,0,.1.38.86.86,0,0,1,.13.31.29.29,0,0,1-.08.21.27.27,0,0,1-.2.08.3.3,0,0,1-.26-.14A.79.79,0,0,1,6,7.8a1.86,1.86,0,0,1,.26-.91,2.26,2.26,0,0,1,.68-.76,2.88,2.88,0,0,1,1-.44,8.8,8.8,0,0,1,1-.15l.47-.06a5.12,5.12,0,0,0-1.06,3q0,.47.08,1.88.29-.35.52-.67l.84-1.24q1.09-1.66,1.63-2.33a6.57,6.57,0,0,1,.87-.87,22.7,22.7,0,0,0-.47,5.29L13,9a14,14,0,0,0,1-1.43,6.68,6.68,0,0,0,.67-1.31,2,2,0,0,0,.1-.6,1.51,1.51,0,0,0-.13-.59.93.93,0,0,1-.08-.28.29.29,0,0,1,.1-.22.34.34,0,0,1,.24-.09.33.33,0,0,1,.29.17,1,1,0,0,1,.16.6A3.57,3.57,0,0,1,15,6.55Z"/></svg>